<?xml version="1.0" standalone="no"?>
<!DOCTYPE svg PUBLIC "-//W3C//DTD SVG 20010904//EN"
 "http://www.w3.org/TR/2001/REC-SVG-20010904/DTD/svg10.dtd">
<svg version="1.0" xmlns="http://www.w3.org/2000/svg"
 width="500.000000pt" height="500.000000pt" viewBox="0 0 500.000000 500.000000"
 preserveAspectRatio="xMidYMid meet">
<metadata>
Created by potrace 1.14, written by Peter Selinger 2001-2017
</metadata>
<g transform="translate(0.000000,500.000000) scale(0.100000,-0.100000)"
fill="#000000" stroke="none">
<path d="M2310 4994 c-19 -2 -73 -9 -120 -14 -556 -67 -1101 -340 -1489 -745
-379 -397 -604 -867 -683 -1430 -7 -50 -13 -185 -13 -305 0 -218 9 -309 46
-500 74 -372 253 -755 499 -1065 81 -103 282 -304 385 -385 364 -289 780 -464
1260 -532 117 -17 493 -17 610 0 645 91 1185 382 1593 857 317 370 512 811
584 1320 17 117 17 493 0 610 -67 475 -235 876 -520 1245 -83 106 -291 316
-397 400 -361 286 -775 462 -1245 530 -78 11 -448 21 -510 14z m413 -1369
c405 -85 731 -370 862 -756 80 -235 80 -503 0 -738 -98 -288 -301 -519 -577
-658 -268 -134 -591 -156 -877 -58 -334 113 -607 386 -716 715 -46 138 -58
216 -58 370 0 318 112 590 333 810 193 192 408 293 715 334 54 8 244 -4 318
-19z"/>
</g>
</svg>
